# xmcd CD database file
#
# Track frame offsets:
#	150
#	20532
#	38363
#	66472
#	84840
#	103519
#	120171
#	138472
#	157669
#	178167
#	200828
#	214930
#
# Disc length: 3088 seconds
#
# Revision: 1
# Processed by: cddbd v1.5.2PL0 Copyright (c) Steve Scherf et al.
# Submitted via: CDex 1.51
#
DISCID=9a0c0e0c
DTITLE=Lil' Ed And The Blues Imperials - Roughhousin'
DYEAR=1900
DGENRE=Blues
TTITLE0=Old Oak Tree
TTITLE1=Midnight Rider
TTITLE2=You Done Me Wrong For The Last Time
TTITLE3=She's Fine, She's Mine
TTITLE4=Everything I Do Brings Me Closer To The Blues
TTITLE5=Pride And Joy
TTITLE6=You Don't Exist Any More
TTITLE7=Mean Old Frisco
TTITLE8=Car Wash Blues
TTITLE9=Walking The Dog
TTITLE10=Killing Floor (Live)
TTITLE11=Can't Let These Blues Go (Live)
EXTD=
EXTT0=
EXTT1=
EXTT2=
EXTT3=
EXTT4=
EXTT5=
EXTT6=
EXTT7=
EXTT8=
EXTT9=
EXTT10=
EXTT11=
PLAYORDER=
